<?xml version="1.0" encoding="UTF-8" standalone="no"?>
<!-- Created with Inkscape (http://www.inkscape.org/) -->
<svg xmlns:rdf="http://www.w3.org/1999/02/22-rdf-syntax-ns#" xmlns="http://www.w3.org/2000/svg" height="198" width="392" version="1.1" xmlns:cc="http://creativecommons.org/ns#" xmlns:dc="http://purl.org/dc/elements/1.1/" viewBox="0 0 103.71666 52.387497"><metadata><rdf:RDF><cc:Work rdf:about=""><dc:format>image/svg+xml</dc:format><dc:type rdf:resource="http://purl.org/dc/dcmitype/StillImage"/><dc:title/></cc:Work></rdf:RDF></metadata><g fill="#FF5733" transform="translate(-34.32 -83.33)"><path d="m96.874 99.158c0.745 0 1.349 0.60423 1.349 1.3498 0 0.74562-0.60398 1.3499-1.349 1.3499-0.74542 0-1.3494-0.6043-1.3494-1.3499 0-0.74562 0.60396-1.3498 1.3494-1.3498zm-62.289 34.834v-16.832h5.9703v0.99565zm2.9852-26.556c1.6473 0 2.9828 1.3362 2.9828 2.9843 0 1.6482-1.3355 2.9844-2.9828 2.9844-1.6476 0-2.983-1.3362-2.983-2.9844s1.3355-2.9843 2.983-2.9843zm12.426 5.7831c-0.23481 0.0369-0.44781 0.13139-0.63899 0.29266-0.27657 0.23268-0.46982 0.53092-0.59679 0.86776l-7.8305 20.771h-6.3447l8.2088-21.774c0.55428-1.6091 1.3798-3.1501 2.628-4.3284 1.329-1.2552 3.1809-1.6167 4.952-1.6167 0.1942 0 0.38836 0.005 0.58236 0.0139zm24.626-5.7334c1.6053 0.15786 3.1301 0.69035 4.2475 1.8979 1.306 1.4112 1.7983 3.1954 1.7983 5.0915v20.676h-5.9967v-20.399c0-0.41555-0.08864-0.8332-0.37398-1.1486-0.17889-0.19779-0.38913-0.31758-0.63089-0.37048zm-1.3685 5.718c-0.29114 0.0186-0.55126 0.11515-0.78004 0.30799-0.27657 0.23268-0.46982 0.53092-0.59669 0.86776l-0.77519 2.0565h0.02622l-4.8139 12.77c-0.55428 1.6092-1.3798 3.1501-2.628 4.3287-1.329 1.2549-3.1809 1.6164-4.952 1.6164-0.17332 0-0.34704-0.002-0.52015-0.0116l0.96239-5.7881c0.20928-0.0432 0.4005-0.13465 0.57428-0.28089 0.27655-0.23282 0.46982-0.53108 0.59667-0.86776l1.2386-3.2859h-0.02622l4.3506-11.54c0.55428-1.6091 1.3798-3.1501 2.628-4.3284 1.329-1.2552 3.1809-1.6166 4.952-1.6166 0.24014 0 0.48003 0.007 0.71994 0.0209zm-15.453 21.911c-0.05894-0.005-0.1174-0.009-0.17564-0.0162-1.6137-0.15531-3.1475-0.68734-4.2703-1.9005-1.306-1.4112-1.7986-3.1952-1.7986-5.0913v-3.1905h-0.0018v-10.165c0-0.41552-0.08864-0.83317-0.37381-1.1486-0.2116-0.23379-0.46678-0.35885-0.76612-0.39277l0.95406-5.7375 0.11392 0.009c1.6137 0.15507 3.1476 0.68708 4.2703 1.9002 1.306 1.4112 1.7983 3.1954 1.7983 5.0914v1.9609h0.0018v11.395c0 0.41551 0.08863 0.83316 0.37381 1.1486 0.22599 0.24978 0.50182 0.3753 0.82784 0.39856l-0.95406 5.7378zm38.993 0.0355c-0.21764-0.50538-0.40697-1.0391-0.56124-1.6081-0.16149-0.56179-0.27381-1.1375-0.34411-1.7271-0.61739 1.0883-1.4315 1.9869-2.4422 2.6961-1.0176 0.71615-2.2248 1.0672-3.6213 1.0744-2.33-0.007-4.1264-0.60379-5.3825-1.8044-1.2634-1.2007-1.8949-2.837-1.8949-4.9081 0-2.1768 0.84224-3.8688 2.5195-5.0697 1.6774-1.2006 4.1267-1.7975 7.3477-1.7975h3.3756v-1.7696c0-1.0671-0.28075-1.9026-0.84218-2.4926-0.56124-0.5825-1.4035-0.87749-2.5123-0.87749-0.9687 0-1.7195 0.23146-2.2529 0.70895-0.52646 0.47072-0.78584 1.1165-0.78584 1.9381h-5.7831l-0.03504-0.11955c-0.09815-1.8817 0.72298-3.5036 2.4563-4.8658 1.7334-1.362 3.9933-2.0502 6.7932-2.0502 2.674 0 4.8352 0.67389 6.4847 2.0221 1.6491 1.3411 2.4774 3.2652 2.4774 5.7789v9.1917c0 1.0463 0.077 2.0221 0.23852 2.9419 0.15429 0.91999 0.40695 1.8328 0.7508 2.7386zm-5.4881-4.0093c1.0457 0 1.9722-0.25993 2.8005-0.78642 0.82088-0.51953 1.3823-1.1236 1.6842-1.8044v-3.1529h-3.3756c-1.2703 0-2.2387 0.31595-2.8844 0.94801-0.65266 0.63188-0.98236 1.4045-0.98236 2.3242 0 0.75818 0.24548 1.355 0.72994 1.7975 0.49094 0.4492 1.1649 0.67408 2.0278 0.67408zm26.484 4.0093c-0.21764-0.50538-0.40698-1.0391-0.56144-1.6081-0.16125-0.56179-0.27361-1.1375-0.34382-1.7271-0.61766 1.0883-1.4316 1.9869-2.4423 2.6961-1.0176 0.71615-2.2248 1.0672-3.6213 1.0744-2.33-0.007-4.1264-0.60379-5.3826-1.8044-1.2633-1.2007-1.8949-2.837-1.8949-4.9081 0-2.1768 0.84225-3.8688 2.5195-5.0697 1.6773-1.2006 4.1264-1.7975 7.3477-1.7975h3.3757v-1.7696c0-1.0671-0.28075-1.9026-0.84225-2.4926-0.56149-0.5825-1.4035-0.87749-2.5126-0.87749-0.96836 0-1.7192 0.23146-2.2526 0.70895-0.52646 0.47072-0.78587 1.1165-0.78587 1.9381h-5.783l-0.035-0.11955c-0.0981-1.8817 0.72299-3.5036 2.4564-4.8658 1.7334-1.362 3.993-2.0502 6.7932-2.0502 2.6738 0 4.8352 0.67389 6.4844 2.0221 1.6492 1.3411 2.4777 3.2652 2.4777 5.7789v9.1917c0 1.0463 0.077 2.0221 0.23852 2.9419 0.15429 0.91999 0.40695 1.8328 0.7508 2.7386zm-5.4881-4.0093c1.0456 0 1.9721-0.25993 2.8004-0.78642 0.82087-0.51953 1.3824-1.1236 1.6842-1.8044v-3.1529h-3.3757c-1.2702 0-2.2389 0.31595-2.8846 0.94801-0.65245 0.63188-0.98213 1.4045-0.98213 2.3242 0 0.75818 0.24548 1.355 0.72995 1.7975 0.49093 0.4492 1.1647 0.67408 2.0278 0.67408zm21.379-23.697v5.4487h3.7617v4.22h-3.7617v11.332c0 0.86381 0.17564 1.4818 0.54052 1.8537 0.36458 0.36516 0.84201 0.55498 1.4316 0.55498 0.31578 0 0.58934-0.0209 0.82113-0.0564 0.23156-0.035 0.49815-0.0912 0.8-0.1755l0.49814 4.3466c-0.60348 0.20335-1.193 0.35796-1.7615 0.46335-0.56845 0.0984-1.1858 0.14719-1.8595 0.15438-2.0703-0.007-3.6636-0.57572-4.7793-1.7132-1.1158-1.1375-1.677-2.942-1.677-5.4068v-11.354h-3.2496v-4.22h3.2496v-5.4487zm-20.99-11.147c1.5638 1.9224 2.4526 4.6997 2.0248 6.6559-0.28376 1.2974-1.0763 2.7834-2.7554 4.5058 4.4178-2.2696 8.9896-4.9622 11.903-7.3829l-3.3317-1.9864 1.9343-2.9298-3.8531-1.1066 0.88675-3.2757-4.0628-0.1365-0.005-0.0643-0.22738-3.2915-3.9429 0.84448-1.3319-3.1643-3.5042 1.7573-3.4168-3.2557-0.0249 0.02366-3.3923 3.232-3.5042-1.7573-1.332 3.1643-3.9429-0.84447-0.21369 3.0934-0.01857 0.2623-4.0626 0.1365 0.88677 3.2757-3.8531 1.1066 1.9344 2.9298-3.3318 1.9864c2.9127 2.4207 7.4846 5.1134 11.903 7.3829-1.6788-1.7225-2.4716-3.2084-2.7556-4.5058-0.42407-1.9397 0.44616-4.6866 1.9856-6.6068 1.2583-1.5702 2.9635-2.5879 4.7749-2.1587 3.0826 0.73033 3.9717 1.0899 4.8902 1.0799v-0.0023l0.0568 0.0023 0.0139-0.000742 0.042-0.0017v0.0023c0.9186 0.0093 1.8079-0.34961 4.8902-1.0799 1.7926-0.42478 3.4809 0.56762 4.7354 2.1097zm2.2366-4.6676c0.45107 0.498 0.67869 1.2496 0.65873 2.1081-0.0209 0.93522-0.3875 2.0458-1.3884 3.1872-0.34551-0.53156-0.71596-1.0186-1.1106-1.4543-0.90839-1.0024-1.9448-1.7324-3.0995-2.1006 0.74707-1.3455 1.7803-2.0438 2.7248-2.2769 0.97981-0.24182 1.7278-0.000673 2.215 0.53649zm-23.789-0.05223c-0.48372 0.49635-0.7283 1.2715-0.70758 2.1603 0.02088 0.93522 0.38746 2.0458 1.3883 3.1872 0.33803-0.52017 0.70022-0.99746 1.0856-1.4263 0.91417-1.0172 1.9592-1.7572 3.1246-2.1286-0.74714-1.3455-1.7803-2.0438-2.7248-2.2769-0.94733-0.23372-1.6782-0.01625-2.1662 0.48423zm15.01 18.374c0.0162 0.0768 0.0294 0.15577 0.0385 0.237l0.29697-0.182c1.1724-0.71034 2.5476-1.3253 3.1301-2.3365 0.44451-0.77093 0.79239-1.621-0.13156-2.2055-0.35613-0.0803-0.68584-0.21821-0.99301-0.39906-1.7596-1.0362-2.7831-3.5023-3.8355-4.8918-0.48699-0.643-1.035-0.98869-1.5884-1.0379v-0.0047l-0.0292 0.000813-0.0274 0.000674-0.0568-0.0017v0.0047c-0.55315 0.04921-1.1014 0.3949-1.5884 1.0379-1.1019 1.4546-2.1716 4.0896-4.0879 5.0283-0.23367 0.11445-0.48006 0.20359-0.74083 0.26253-0.92368 0.58457-0.57588 1.4346-0.13109 2.2056 0.56124 0.97453 1.8589 1.5811 3.0016 2.2597l0.12831 0.0768 0.2972 0.182c0.16682-1.5103 1.6497-2.2584 3.1211-2.2457v0.002l0.0568-0.002 0.0566 0.002v-0.002h0.00026c1.3921-0.0116 2.7942 0.65743 3.0826 2.0087zm2.9988-10.789c-0.74524 0-1.3491 0.6042-1.3491 1.3499 0 0.74562 0.60389 1.3499 1.3491 1.3499 0.74526 0 1.3492-0.6043 1.3492-1.3499 0-0.74566-0.60389-1.3499-1.3492-1.3499zm-6.0788 9.5225-0.0585 0.00063h-0.002c-1.2165-0.0327-2.4661 0.5757-2.4447 1.8253 0.0209 1.2088 1.2494 1.7965 2.4459 1.764l0.0714 0.00063c1.1732 0.007 2.354-0.58055 2.3742-1.7651 0.0209-1.2297-1.1884-1.8381-2.3863-1.8263" fill-rule="evenodd" stroke-width=".81872" fill="#fff"/></g></svg>
